
<svg width="80px" height="80px" viewBox="0 0 80 80" version="1.1" xmlns="http://www.w3.org/2000/svg" xmlns:xlink="http://www.w3.org/1999/xlink">
    <!-- Generator: Sketch 46.2 (44496) - http://www.bohemiancoding.com/sketch -->
    <desc>Created with Sketch.</desc>
    <defs></defs>
    <g id="logos" stroke="none" stroke-width="1" fill="none" fill-rule="evenodd">
        <g id="Desktop-HD" transform="translate(-744.000000, -720.000000)">
            <g id="rank10" transform="translate(744.000000, 720.000000)">
                <rect id="Rectangle-path" x="0" y="0" width="80" height="80"></rect>
                <g id="Group-12" fill="#F8E71C">
                    <g id="Group-3" transform="translate(40.000000, 64.347826) rotate(180.000000) translate(-40.000000, -64.347826) translate(31.304348, 48.695652)">
                        <polygon id="Rectangle-3" points="0 7.67842494 8.11594203 0 8.11594203 23.6259229 0 31.3043478"></polygon>
                        <polygon id="Rectangle-3" transform="translate(13.333333, 15.652174) scale(-1, 1) translate(-13.333333, -15.652174) " points="9.27536232 7.67842494 17.3913043 0 17.3913043 23.6259229 9.27536232 31.3043478"></polygon>
                    </g>
                    <g id="Group-3" transform="translate(15.652174, 40.000000) rotate(-90.000000) translate(-15.652174, -40.000000) translate(6.956522, 24.347826)">
                        <polygon id="Rectangle-3" points="0 7.67842494 8.11594203 0 8.11594203 23.6259229 0 31.3043478"></polygon>
                        <polygon id="Rectangle-3" transform="translate(13.333333, 15.652174) scale(-1, 1) translate(-13.333333, -15.652174) " points="9.27536232 7.67842494 17.3913043 0 17.3913043 23.6259229 9.27536232 31.3043478"></polygon>
                    </g>
                    <g id="Group-3" transform="translate(31.304348, 0.000000)">
                        <polygon id="Rectangle-3" points="0 7.67842494 8.11594203 0 8.11594203 23.6259229 0 31.3043478"></polygon>
                        <polygon id="Rectangle-3" transform="translate(13.333333, 15.652174) scale(-1, 1) translate(-13.333333, -15.652174) " points="9.27536232 7.67842494 17.3913043 0 17.3913043 23.6259229 9.27536232 31.3043478"></polygon>
                    </g>
                    <g id="Group-3" transform="translate(64.347826, 40.000000) rotate(90.000000) translate(-64.347826, -40.000000) translate(55.652174, 24.347826)">
                        <polygon id="Rectangle-3" points="0 7.67842494 8.11594203 0 8.11594203 23.6259229 0 31.3043478"></polygon>
                        <polygon id="Rectangle-3" transform="translate(13.333333, 15.652174) scale(-1, 1) translate(-13.333333, -15.652174) " points="9.27536232 7.67842494 17.3913043 0 17.3913043 23.6259229 9.27536232 31.3043478"></polygon>
                    </g>
                </g>
            </g>
        </g>
    </g>
</svg>
