
<svg width="72px" height="80px" viewBox="0 0 72 80" version="1.1" xmlns="http://www.w3.org/2000/svg" xmlns:xlink="http://www.w3.org/1999/xlink">
    <!-- Generator: Sketch 46.2 (44496) - http://www.bohemiancoding.com/sketch -->
    <desc>Created with Sketch.</desc>
    <defs></defs>
    <g id="logos" stroke="none" stroke-width="1" fill="none" fill-rule="evenodd">
        <g id="Desktop-HD" transform="translate(-968.000000, -720.000000)">
            <g id="rank12" transform="translate(964.000000, 720.000000)">
                <rect id="Rectangle-path" x="0" y="0" width="80" height="80"></rect>
                <g id="Group-14" transform="translate(1.000000, 0.000000)" fill="#F8E71C">
                    <g id="Group-3" transform="translate(15.245883, 53.575497) rotate(-120.000000) translate(-15.245883, -53.575497) translate(7.840820, 40.242163)">
                        <polygon id="Rectangle-3" points="0 6.5408805 6.91139241 0 6.91139241 20.1257862 0 26.6666667"></polygon>
                        <polygon id="Rectangle-3" transform="translate(11.354430, 13.333333) scale(-1, 1) translate(-11.354430, -13.333333) " points="7.89873418 6.5408805 14.8101266 0 14.8101266 20.1257862 7.89873418 26.6666667"></polygon>
                    </g>
                    <g id="Group-3" transform="translate(15.245883, 26.908830) rotate(-60.000000) translate(-15.245883, -26.908830) translate(7.840820, 13.575497)">
                        <polygon id="Rectangle-3" points="0 6.5408805 6.91139241 0 6.91139241 20.1257862 0 26.6666667"></polygon>
                        <polygon id="Rectangle-3" transform="translate(11.354430, 13.333333) scale(-1, 1) translate(-11.354430, -13.333333) " points="7.89873418 6.5408805 14.8101266 0 14.8101266 20.1257862 7.89873418 26.6666667"></polygon>
                    </g>
                    <g id="Group-3" transform="translate(39.000000, 66.666667) rotate(180.000000) translate(-39.000000, -66.666667) translate(31.594937, 53.333333)">
                        <polygon id="Rectangle-3" points="0 6.5408805 6.91139241 0 6.91139241 20.1257862 0 26.6666667"></polygon>
                        <polygon id="Rectangle-3" transform="translate(11.354430, 13.333333) scale(-1, 1) translate(-11.354430, -13.333333) " points="7.89873418 6.5408805 14.8101266 0 14.8101266 20.1257862 7.89873418 26.6666667"></polygon>
                    </g>
                    <g id="Group-3" transform="translate(62.638288, 53.575497) rotate(120.000000) translate(-62.638288, -53.575497) translate(55.233225, 40.242163)">
                        <polygon id="Rectangle-3" points="0 6.5408805 6.91139241 0 6.91139241 20.1257862 0 26.6666667"></polygon>
                        <polygon id="Rectangle-3" transform="translate(11.354430, 13.333333) scale(-1, 1) translate(-11.354430, -13.333333) " points="7.89873418 6.5408805 14.8101266 0 14.8101266 20.1257862 7.89873418 26.6666667"></polygon>
                    </g>
                    <g id="Group-3" transform="translate(62.638288, 26.908830) rotate(60.000000) translate(-62.638288, -26.908830) translate(55.233225, 13.575497)">
                        <polygon id="Rectangle-3" points="0 6.5408805 6.91139241 0 6.91139241 20.1257862 0 26.6666667"></polygon>
                        <polygon id="Rectangle-3" transform="translate(11.354430, 13.333333) scale(-1, 1) translate(-11.354430, -13.333333) " points="7.89873418 6.5408805 14.8101266 0 14.8101266 20.1257862 7.89873418 26.6666667"></polygon>
                    </g>
                    <g id="Group-3" transform="translate(31.594937, 0.000000)">
                        <polygon id="Rectangle-3" points="0 6.5408805 6.91139241 0 6.91139241 20.1257862 0 26.6666667"></polygon>
                        <polygon id="Rectangle-3" transform="translate(11.354430, 13.333333) scale(-1, 1) translate(-11.354430, -13.333333) " points="7.89873418 6.5408805 14.8101266 0 14.8101266 20.1257862 7.89873418 26.6666667"></polygon>
                    </g>
                </g>
            </g>
        </g>
    </g>
</svg>
