
<svg width="80px" height="77px" viewBox="0 0 80 77" version="1.1" xmlns="http://www.w3.org/2000/svg" xmlns:xlink="http://www.w3.org/1999/xlink">
    <!-- Generator: Sketch 46.2 (44496) - http://www.bohemiancoding.com/sketch -->
    <desc>Created with Sketch.</desc>
    <defs></defs>
    <g id="logos" stroke="none" stroke-width="1" fill="none" fill-rule="evenodd">
        <g id="Desktop-HD" transform="translate(-854.000000, -832.000000)">
            <g id="rank17" transform="translate(854.000000, 830.000000)">
                <rect id="Rectangle-path" x="0" y="0" width="80" height="80"></rect>
                <g id="Group-18" transform="translate(0.000000, 2.000000)" fill="#F8E71C">
                    <polygon id="Star" points="16.8233956 24.4110475 6.42596531 32 10.4305053 19.7663409 -2.24265051e-14 12.2229124 12.8723721 12.2510477 16.8233956 0 20.774419 12.2510477 33.6467912 12.2229124 23.2162858 19.7663409 27.2208259 32"></polygon>
                    <polygon id="Star" points="62.5376813 24.4110475 52.140251 32 56.1447911 19.7663409 45.7142857 12.2229124 58.5866578 12.2510477 62.5376813 0 66.4887048 12.2510477 79.3610769 12.2229124 68.9305715 19.7663409 72.9351116 32"></polygon>
                    <polygon id="Star" points="16.8233956 68.9824761 6.42596531 76.5714286 10.4305053 64.3377695 -2.24265051e-14 56.7943409 12.8723721 56.8224763 16.8233956 44.5714286 20.774419 56.8224763 33.6467912 56.7943409 23.2162858 64.3377695 27.2208259 76.5714286"></polygon>
                    <polygon id="Star" points="62.5376813 68.9824761 52.140251 76.5714286 56.1447911 64.3377695 45.7142857 56.7943409 58.5866578 56.8224763 62.5376813 44.5714286 66.4887048 56.8224763 79.3610769 56.7943409 68.9305715 64.3377695 72.9351116 76.5714286"></polygon>
                    <polygon id="Star" points="39.6805384 46.1253333 29.2831082 53.7142857 33.2876482 41.4806266 22.8571429 33.9371981 35.729515 33.9653334 39.6805384 21.7142857 43.6315619 33.9653334 56.503934 33.9371981 46.0734287 41.4806266 50.0779687 53.7142857"></polygon>
                </g>
            </g>
        </g>
    </g>
</svg>
