
<svg width="72px" height="65px" viewBox="0 0 72 65" version="1.1" xmlns="http://www.w3.org/2000/svg" xmlns:xlink="http://www.w3.org/1999/xlink">
    <!-- Generator: Sketch 46.2 (44496) - http://www.bohemiancoding.com/sketch -->
    <desc>Created with Sketch.</desc>
    <defs></defs>
    <g id="logos" stroke="none" stroke-width="1" fill="none" fill-rule="evenodd">
        <g id="Desktop-HD" transform="translate(-638.000000, -726.000000)">
            <g id="rank9" transform="translate(634.000000, 720.000000)">
                <rect id="Rectangle-path" x="0" y="0" width="80" height="80"></rect>
                <g id="Group-11" transform="translate(0.000000, 6.000000)" fill="#F8E71C">
                    <g id="Group-3" transform="translate(30.476190, 0.000000)">
                        <polygon id="Rectangle-3" points="0 8.4097035 8.88888889 0 8.88888889 25.8760108 0 34.2857143"></polygon>
                        <polygon id="Rectangle-3" transform="translate(14.603175, 17.142857) scale(-1, 1) translate(-14.603175, -17.142857) " points="10.1587302 8.4097035 19.047619 0 19.047619 25.8760108 10.1587302 34.2857143"></polygon>
                    </g>
                    <g id="Group-3" transform="translate(20.074485, 51.746032) rotate(240.000000) translate(-20.074485, -51.746032) translate(10.550676, 34.603175)">
                        <polygon id="Rectangle-3" points="0 8.4097035 8.88888889 0 8.88888889 25.8760108 0 34.2857143"></polygon>
                        <polygon id="Rectangle-3" transform="translate(14.603175, 17.142857) scale(-1, 1) translate(-14.603175, -17.142857) " points="10.1587302 8.4097035 19.047619 0 19.047619 25.8760108 10.1587302 34.2857143"></polygon>
                    </g>
                    <g id="Group-3" transform="translate(60.072846, 51.485625) rotate(119.000000) translate(-60.072846, -51.485625) translate(50.549036, 34.342768)">
                        <polygon id="Rectangle-3" points="0 8.4097035 8.88888889 0 8.88888889 25.8760108 0 34.2857143"></polygon>
                        <polygon id="Rectangle-3" transform="translate(14.603175, 17.142857) scale(-1, 1) translate(-14.603175, -17.142857) " points="10.1587302 8.4097035 19.047619 0 19.047619 25.8760108 10.1587302 34.2857143"></polygon>
                    </g>
                </g>
            </g>
        </g>
    </g>
</svg>
