<?xml version="1.0" encoding="UTF-8"?>
<svg width="19px" height="24px" viewBox="0 0 19 24" version="1.1" xmlns="http://www.w3.org/2000/svg" xmlns:xlink="http://www.w3.org/1999/xlink">
    <!-- Generator: Sketch 57.1 (83088) - https://sketch.com -->
    <title>bug</title>
    <desc>Created with Sketch.</desc>
    <g id="icons" stroke="none" stroke-width="1" fill="none" fill-rule="evenodd">
        <g id="Desktop-HD" transform="translate(-1492.000000, -1818.000000)">
            <g id="bug" transform="translate(1490.000000, 1818.000000)">
                <g id="Outline_Icons" stroke-linecap="round" stroke-linejoin="round" transform="translate(2.000000, 0.000000)">
                    <g id="Group">
                        <path d="M14.475,8.498 C14.224,5.998 12.093,3.998 9.5,3.998 C6.907,3.998 4.776,5.998 4.525,8.498 L14.475,8.498 Z" id="Shape" stroke="#ED1C24"></path>
                        <path d="M5.5,0.5 C5.5,0.5 5.502,0.95 5.504,1.501 C5.51,2.635 6.42,3.717 7.1,4.612" id="Shape" stroke="#ED1C24"></path>
                        <path d="M13.509,0.498 C13.509,0.498 13.507,0.948 13.505,1.499 C13.499,2.634 12.583,3.714 11.901,4.612" id="Shape" stroke="#ED1C24"></path>
                        <path d="M4.5,10.498 L4.5,16.5 C4.5,19.261 9.5,23.5 9.5,23.5 C9.5,23.5 14.5,19.261 14.5,16.5 L14.5,10.498 L4.5,10.498 Z" id="Shape" stroke="#E8E5E0"></path>
                        <path d="M4.5,10.5 C4.5,10.5 3.938,10.5 3.25,10.5 C1.865,10.5 0.964,11.536 0,12.5" id="Shape" stroke="#E8E5E0"></path>
                        <path d="M4.5,13.5 C4.5,13.5 3.938,13.5 3.25,13.5 C1.865,13.5 0.964,14.536 0,15.5" id="Shape" stroke="#E8E5E0"></path>
                        <path d="M4.5,16.5 C4.5,16.5 3.938,16.5 3.25,16.5 C1.865,16.5 0.964,17.536 0,18.5" id="Shape" stroke="#E8E5E0"></path>
                        <path d="M14.5,10.5 C14.5,10.5 15.062,10.5 15.75,10.5 C17.134,10.5 18.041,11.539 19,12.5" id="Shape" stroke="#E8E5E0"></path>
                        <path d="M14.5,13.5 C14.5,13.5 15.062,13.5 15.75,13.5 C17.134,13.5 18.041,14.539 19,15.5" id="Shape" stroke="#E8E5E0"></path>
                        <path d="M14.5,16.5 C14.5,16.5 15.062,16.5 15.75,16.5 C17.134,16.5 18.041,17.539 19,18.5" id="Shape" stroke="#E8E5E0"></path>
                    </g>
                </g>
                <g id="Invisible_Shape">
                    <rect id="Rectangle-path" x="0" y="0" width="24" height="24"></rect>
                </g>
            </g>
        </g>
    </g>
</svg>