<?xml version="1.0" encoding="UTF-8"?>
<svg width="16px" height="24px" viewBox="0 0 16 24" version="1.1" xmlns="http://www.w3.org/2000/svg" xmlns:xlink="http://www.w3.org/1999/xlink">
    <!-- Generator: Sketch 57.1 (83088) - https://sketch.com -->
    <title>drm</title>
    <desc>Created with Sketch.</desc>
    <g id="icons" stroke="none" stroke-width="1" fill="none" fill-rule="evenodd">
        <g id="Desktop-HD" transform="translate(-1370.000000, -1818.000000)">
            <g id="drm" transform="translate(1366.000000, 1818.000000)">
                <g id="Outline_Icons_1_" stroke-linejoin="round" transform="translate(4.000000, 0.000000)">
                    <g id="Outline_Icons">
                        <g id="Group">
                            <circle id="Oval" stroke="#E8E5E0" cx="8" cy="16" r="7.5"></circle>
                            <circle id="Oval" stroke="#ED1C24" cx="8" cy="16" r="4"></circle>
                            <path d="M8,11 L8,13" id="Shape" stroke="#ED1C24" stroke-linecap="round"></path>
                            <path d="M8,19 L8,21" id="Shape" stroke="#ED1C24" stroke-linecap="round"></path>
                            <path d="M13,16 L11,16" id="Shape" stroke="#ED1C24" stroke-linecap="round"></path>
                            <path d="M5,16 L3,16" id="Shape" stroke="#ED1C24" stroke-linecap="round"></path>
                            <path d="M8.5,16 C8.5,16.276 8.276,16.5 8,16.5 L8,16.5 C7.724,16.5 7.5,16.276 7.5,16 L7.5,16 C7.5,15.724 7.724,15.5 8,15.5 L8,15.5 C8.276,15.5 8.5,15.724 8.5,16 L8.5,16 Z" id="Shape" stroke="#E8E5E0"></path>
                            <path d="M13.5,10.907 L13.5,5.5 C13,2.739 10.762,0.5 8,0.5 C5.238,0.5 3,2.739 2.5,5.5 L2.5,10.907" id="Shape" stroke="#E8E5E0"></path>
                        </g>
                    </g>
                </g>
                <g id="Invisible_Shape">
                    <rect id="Rectangle-path" x="0" y="0" width="24" height="24"></rect>
                </g>
            </g>
        </g>
    </g>
</svg>