
<svg width="24px" height="24px" viewBox="0 0 24 24" version="1.1" xmlns="http://www.w3.org/2000/svg" xmlns:xlink="http://www.w3.org/1999/xlink">
    <!-- Generator: Sketch 50.2 (55047) - http://www.bohemiancoding.com/sketch -->
    <desc>Created with Sketch.</desc>
    <defs></defs>
    <g id="icons" stroke="none" stroke-width="1" fill="none" fill-rule="evenodd">
        <g id="Desktop-HD" transform="translate(-1709.000000, -1756.000000)">
            <g id="button-smiley" transform="translate(1709.000000, 1755.000000)">
                <g id="Outline_Icons" stroke="#E8E5E0" stroke-linecap="round" stroke-linejoin="round">
                    <g id="Group">
                        <path d="M23.5,20.5 C23.5,22.7 21.7,24.5 19.5,24.5 L4.5,24.5 C2.3,24.5 0.5,22.7 0.5,20.5 L0.5,5.5 C0.5,3.3 2.3,1.5 4.5,1.5 L19.5,1.5 C21.7,1.5 23.5,3.3 23.5,5.5 L23.5,20.5 Z" id="Shape"></path>
                        <g id="Shape">
                            <path d="M5.20833333,8.85416667 L9.375,8.85416667"></path>
                            <path d="M13.5416667,8.85416667 L17.7083333,8.85416667"></path>
                            <path d="M19.2708333,15.625 C17.9239583,18.021875 15.4083333,19.5104167 12.5302083,19.5104167"></path>
                        </g>
                    </g>
                </g>
                <g id="Invisible_Shape" transform="translate(0.000000, 1.000000)">
                    <rect id="Rectangle-path" x="0" y="0" width="24" height="24"></rect>
                </g>
            </g>
        </g>
    </g>
</svg>
