
<svg width="24px" height="19px" viewBox="0 0 24 19" version="1.1" xmlns="http://www.w3.org/2000/svg" xmlns:xlink="http://www.w3.org/1999/xlink">
    <!-- Generator: Sketch 50.2 (55047) - http://www.bohemiancoding.com/sketch -->
    <desc>Created with Sketch.</desc>
    <defs></defs>
    <g id="icons" stroke="none" stroke-width="1" fill="none" fill-rule="evenodd">
        <g id="Desktop-HD" transform="translate(-894.000000, -1175.000000)">
            <g id="account-group-5" transform="translate(894.000000, 1172.000000)">
                <g id="Outline_Icons_1_" transform="translate(0.000000, 3.000000)" stroke="#E8E5E0" stroke-linejoin="round">
                    <g id="Outline_Icons">
                        <g id="Group">
                            <path d="M7.919,18.5 L15.5,18.5 C15.5,18.5 15.5,15.5 15.5,14 C15.5,13.5 12.5,12 10,11 L10,9 C10,9 11,8.65 11,6.5 C11.695,6.5 12,4.5 11.032,4.5 C11.032,4.288 11.798,3.192 11.5,2 C11,0 6,0 5.5,2 C3.395,1.569 5,4.212 5,4.5 C4,4.5 4.304,6.5 5,6.5 C5,8.65 6,9 6,9 L6,11 C3.5,12 0.5,13.5 0.5,14 C0.5,15 0.5,18.5 0.5,18.5 L7.919,18.5 Z" id="Shape"></path>
                            <path d="M18,18.5 L23.5,18.5 C23.5,18.5 23.5,15.199 23.5,14 C23.5,13.5 21,12.8 19,12 L19,10.5 C19,10.5 20,10.22 20,8.5 C20.557,8.5 20.774,6.5 20,6.5 C20,6.331 20.811,5.433 20.5,4.5 C20,3 16,3 15.5,4.5 C13.815,4.155 15,6.27 15,6.5 C14.2,6.5 14.443,8.5 15,8.5 C15,10.22 16,10.5 16,10.5 L16,11.5" id="Shape" stroke-linecap="round"></path>
                        </g>
                    </g>
                </g>
                <g id="Invisible_Shape">
                    <rect id="Rectangle-path" x="0" y="0" width="24" height="24"></rect>
                </g>
            </g>
        </g>
    </g>
</svg>
