<svg width="24px" height="24px" viewBox="0 0 24 24" version="1.1" xmlns="http://www.w3.org/2000/svg" xmlns:xlink="http://www.w3.org/1999/xlink">
    <!-- Generator: Sketch 47.1 (45422) - http://www.bohemiancoding.com/sketch -->
    <desc>Created with Sketch.</desc>
    <defs></defs>
    <g id="logos" stroke="none" stroke-width="1" fill="none" fill-rule="evenodd">
        <g id="Desktop-HD" transform="translate(-789.000000, -1761.000000)">
            <g id="globe-2" transform="translate(789.000000, 1761.000000)">
                <g id="Outline_Icons" stroke-linecap="round" stroke="#E8E5E0" stroke-linejoin="round">
                    <g id="Group">
                        <circle id="Oval" cx="12" cy="12" r="11.5"></circle>
                        <path d="M20.5,4.255 C20.5,4.255 20,7 18,8 C16,7.5 14,9 14.5,9 C15,9 15.5,11 15.5,11 C16,11.5 17,11 17,11 C18.25,12.25 15,14.5 15,15 C15,15.5 16.25,15.75 15.5,16.5 C14.75,17.25 14,17.5 14,17.5 C14,20 11.5,20 11,20 C10.5,20 9.5,18 9.5,17.5 C9.5,17 10,16.5 10,16 C10,15.5 9,14.5 9,14.5 C9,12.5 7.5,13 6,13 C4.5,13 4.5,11 4.5,11 C4.5,11 4.5,7.5 7,7 C9.5,6.5 9.5,7.5 9.5,7.5 C10.5,8.5 12.5,7.5 13.5,7.5 C13.5,7.5 14,4 13,4.5 C12,5 11.104,4.614 11,3.5 C10.854,1.938 15.363,1 15.363,1" id="Shape"></path>
                    </g>
                </g>
                <g id="invisible_shape">
                    <rect id="Rectangle-path" x="0" y="0" width="24" height="24"></rect>
                </g>
            </g>
        </g>
    </g>
</svg>
