<?xml version="1.0" encoding="UTF-8"?>
<svg width="20px" height="24px" viewBox="0 0 20 24" version="1.1" xmlns="http://www.w3.org/2000/svg" xmlns:xlink="http://www.w3.org/1999/xlink">
    <!-- Generator: Sketch 57.1 (83088) - https://sketch.com -->
    <title>groups</title>
    <desc>Created with Sketch.</desc>
    <g id="icons" stroke="none" stroke-width="1" fill="none" fill-rule="evenodd">
        <g id="Desktop-HD" transform="translate(-1583.000000, -1818.000000)" fill-rule="nonzero">
            <g id="groups" transform="translate(1583.000000, 1818.000000)">
                <path d="M9.6,0 C4.29813333,0 0,1.43253333 0,3.2 L0,12.2666667 C0,14.9776 2.88906667,22.4442667 9.6,24 C16.3109333,22.4442667 19.2,14.9776 19.2,12.2666667 L19.2,3.2 C19.2,1.43253333 14.9018667,0 9.6,0 Z M9.6,1.06666667 C15.1994667,1.06666667 18.1333333,2.65173333 18.1333333,3.2 L18.1333333,12.2666667 C18.1333333,14.473472 15.8236848,20.545464 10.6666667,22.5572917 L10.6666667,19.2 L8.53333333,19.2 L8.53333333,22.5572917 C3.3763152,20.545464 1.06666667,14.473472 1.06666667,12.2666667 L1.06666667,3.2 C1.06666667,2.65173333 4.00053333,1.06666667 9.6,1.06666667 Z M5.33333333,4.8 C4.2688,4.8 3.12266667,5.26773333 2.13333333,6.93333333 C3.17493333,6.208 4.06026667,5.86666667 4.8,5.86666667 C6.2336,5.86666667 6.9474416,7.54642507 7.16770827,7.76562507 C7.47970827,8.0781584 7.98642507,8.0781584 8.2989584,7.76562507 C8.61149173,7.45362507 8.61149173,6.94690827 8.2989584,6.63437493 C8.1037584,6.43970827 7.16693333,4.8 5.33333333,4.8 Z M13.8666667,4.8 C12.0330667,4.8 11.0962416,6.43970827 10.9010416,6.63437493 C10.5885083,6.94690827 10.5885083,7.45362507 10.9010416,7.76562507 C11.2135749,8.0781584 11.7202917,8.0781584 12.0322917,7.76562507 C12.2525584,7.54642507 12.9669333,5.86666667 14.4,5.86666667 C15.1397333,5.86666667 16.0250667,6.208 17.0666667,6.93333333 C16.0773333,5.26773333 14.9312,4.8 13.8666667,4.8 Z M2.13333333,12.8 L4.8,17.0666667 L8.53333333,17.0666667 L9.6,16 L10.6666667,17.0666667 L14.4,17.0666667 L17.0666667,12.8 L13.8666667,15.4666667 L11.7333333,15.4666667 L10.1333333,13.8666667 L9.06666667,13.8666667 L7.46666667,15.4666667 L5.33333333,15.4666667 L2.13333333,12.8 Z" id="Shape" fill="#E8E5E0"></path>
                <path d="M4.8,8 C3.92533333,8 3.15626667,8.3168 2.66666667,8.8 C3.15626667,9.2832 3.92533333,9.6 4.8,9.6 C5.67466667,9.6 6.44373333,9.2832 6.93333333,8.8 C6.44373333,8.3168 5.67466667,8 4.8,8 Z" id="Shape-path" fill="#ED1C24"></path>
                <path d="M14.4,8 C13.5253333,8 12.7562667,8.3168 12.2666667,8.8 C12.7562667,9.2832 13.5253333,9.6 14.4,9.6 C15.2746667,9.6 16.0437333,9.2832 16.5333333,8.8 C16.0437333,8.3168 15.2746667,8 14.4,8 Z" id="Shape-path" fill="#ED1C24"></path>
            </g>
        </g>
    </g>
</svg>