<?xml version="1.0" encoding="UTF-8"?>
<svg width="24px" height="16px" viewBox="0 0 24 16" version="1.1" xmlns="http://www.w3.org/2000/svg" xmlns:xlink="http://www.w3.org/1999/xlink">
    <!-- Generator: Sketch 57.1 (83088) - https://sketch.com -->
    <title>menu-new-cracks</title>
    <desc>Created with Sketch.</desc>
    <g id="icons" stroke="none" stroke-width="1" fill="none" fill-rule="evenodd">
        <g id="Desktop-HD" transform="translate(-1274.000000, -1822.000000)">
            <g id="menu-new-cracks" transform="translate(1274.000000, 1822.000000)">
                <g>
                    <path d="M7.63200432,12.8663102 L6.48814656,12.8663102 L2.14385776,5.36631016 L2.14385776,12.8663102 L1,12.8663102 L1,3.13368984 L2.14385776,3.13368984 L6.5,10.6671124 L6.5,3.13368984 L7.63200432,3.13368984 L7.63200432,12.8663102 Z M14.4121767,8.56818183 L10.7909483,8.56818183 L10.7909483,12.8663102 L9.65301727,12.8663102 L9.65301727,3.13368984 L14.9989225,3.13368984 L14.9989225,4.18983957 L10.7909483,4.18983957 L10.7909483,7.51871659 L14.4121767,7.51871659 L14.4121767,8.56818183 Z M23,8.31417113 C23,9.26783006 22.8577601,10.100041 22.5732759,10.8108289 C22.2887918,11.5216167 21.8857785,12.0641693 21.3642242,12.4385027 C20.8426698,12.8128361 20.234199,13 19.5387931,13 C18.859192,13 18.2566478,12.811722 17.7311422,12.4351605 C17.2056368,12.0585989 16.7976847,11.5216167 16.5072738,10.8241978 C16.2168628,10.1267791 16.0677085,9.31907771 16.0598061,8.40106953 L16.0598061,7.69919786 C16.0598061,6.76336432 16.2040216,5.93672374 16.4924569,5.21925134 C16.7808923,4.50177894 17.1888444,3.95254201 17.7163255,3.57152407 C18.2438066,3.19050611 18.8473386,3 19.5269397,3 C20.2183943,3 20.827853,3.18827797 21.3553341,3.56483957 C21.8828152,3.94140116 22.2887918,4.48729589 22.5732759,5.20254011 C22.8577601,5.91778433 23,6.74999526 23,7.69919786 L23,8.31417113 Z M21.8679958,7.68582889 C21.8679958,6.53163417 21.662538,5.64594783 21.2516165,5.02874332 C20.8406948,4.4115388 20.2658083,4.10294118 19.5269397,4.10294118 C18.8078269,4.10294118 18.2418304,4.4115388 17.8289332,5.02874332 C17.4160361,5.64594783 17.2036639,6.50266832 17.1918104,7.59893049 L17.1918104,8.31417113 C17.1918104,9.43271501 17.4002314,10.311717 17.8170798,10.9512032 C18.2339281,11.5906895 18.8078269,11.9104279 19.5387931,11.9104279 C20.2737106,11.9104279 20.8426704,11.6085146 21.2456897,11.0046792 C21.648709,10.4008438 21.8561423,9.5352107 21.8679958,8.40775402 L21.8679958,7.68582889 Z" id="NFO" fill="#E8E5E0" fill-rule="nonzero"></path>
                    <rect id="Rectangle" fill="#ED1C24" x="0" y="0" width="24" height="1"></rect>
                    <rect id="Rectangle" fill="#ED1C24" x="0" y="15" width="24" height="1"></rect>
                </g>
            </g>
        </g>
    </g>
</svg>