<?xml version="1.0" encoding="UTF-8"?>
<svg width="23px" height="23px" viewBox="0 0 23 23" version="1.1" xmlns="http://www.w3.org/2000/svg" xmlns:xlink="http://www.w3.org/1999/xlink">
    <!-- Generator: Sketch 57.1 (83088) - https://sketch.com -->
    <title>menu-all-games</title>
    <desc>Created with Sketch.</desc>
    <g id="icons" stroke="none" stroke-width="1" fill="none" fill-rule="evenodd">
        <g id="Desktop-HD" transform="translate(-1428.000000, -1818.000000)">
            <g id="menu-all-games" transform="translate(1428.000000, 1818.000000)">
                <g id="Outline_Icons">
                    <g id="Group">
                        <path d="M22.5,2.5 C22.5,1.396 21.604,0.5 20.5,0.5 L2.5,0.5 C1.396,0.5 0.5,1.396 0.5,2.5 L0.5,20.5 C0.5,21.604 1.396,22.5 2.5,22.5 L20.5,22.5 C21.604,22.5 22.5,21.604 22.5,20.5 L22.5,2.5 Z" id="Shape" stroke="#E8E5E0"></path>
                        <rect id="Rectangle-path" stroke="#ED1C24" x="3.5" y="3.5" width="4" height="4"></rect>
                        <rect id="Rectangle-path" stroke="#E8E5E0" x="9.5" y="3.5" width="4" height="4"></rect>
                        <rect id="Rectangle-path" stroke="#E8E5E0" x="15.5" y="3.5" width="4" height="4"></rect>
                        <rect id="Rectangle-path" stroke="#E8E5E0" x="3.5" y="9.5" width="4" height="4"></rect>
                        <rect id="Rectangle-path" stroke="#E8E5E0" x="9.5" y="9.5" width="4" height="4"></rect>
                        <rect id="Rectangle-path" stroke="#ED1C24" x="15.5" y="9.5" width="4" height="4"></rect>
                        <rect id="Rectangle-path" stroke="#E8E5E0" x="3.5" y="15.5" width="4" height="4"></rect>
                    </g>
                </g>
                <g id="Invisible_Shape">
                    <rect id="Rectangle-path" x="0" y="0" width="24" height="24"></rect>
                </g>
            </g>
        </g>
    </g>
</svg>