<?xml version="1.0" encoding="UTF-8"?>
<svg width="80px" height="21px" viewBox="0 0 80 21" version="1.1" xmlns="http://www.w3.org/2000/svg" xmlns:xlink="http://www.w3.org/1999/xlink">
    <!-- Generator: Sketch 57.1 (83088) - https://sketch.com -->
    <title>instant-gaming-1</title>
    <desc>Created with Sketch.</desc>
    <g id="New-Game-Header" stroke="none" stroke-width="1" fill="none" fill-rule="evenodd">
        <g id="Desktop-HD" transform="translate(-774.000000, -1564.000000)" fill="#FF5400" fill-rule="nonzero">
            <g id="superhot" transform="translate(572.000000, 1174.000000)">
                <g id="IG" transform="translate(182.000000, 385.000000)">
                    <g id="instant-gaming-1" transform="translate(20.000000, 5.000000)">
                        <g id="text4151" transform="translate(27.603834, 0.000000)">
                            <polygon id="path4162" points="0.0227653741 4.26166747 1.16103408 4.26166747 1.16103408 0.0694837088 0.0227653741 0.0694837088 0.0227653741 4.26166747"></polygon>
                            <polygon id="path4164" points="1.91229142 4.26166747 3.05056013 4.26166747 3.05056013 1.96870508 4.82625931 4.26166747 5.82793577 4.26166747 5.82793577 0.0694837088 4.68966706 0.0694837088 4.68966706 2.29296239 2.98226401 0.0694837088 1.91229142 0.0694837088 1.91229142 4.26166747"></polygon>
                            <path d="M8.1727693,4.33115118 C9.17444576,4.33115118 9.83464161,3.82160398 9.83464161,2.96463824 L9.83464161,2.94147701 C9.83464161,2.15399497 9.24274188,1.8528989 8.30936154,1.64444777 C7.74022719,1.50548036 7.58086957,1.43599665 7.58086957,1.22754552 C7.58086957,1.06541687 7.71746182,0.949610687 7.9906463,0.949610687 C8.35489229,0.949610687 8.76466902,1.0885781 9.15168038,1.36651294 L9.72081474,0.55586967 C9.26550725,0.18528989 8.71913828,-4.4408921e-16 8.01341168,-4.4408921e-16 C7.01173522,-4.4408921e-16 6.41983549,0.55586967 6.41983549,1.3433517 L6.41983549,1.36651294 C6.41983549,2.22347868 7.10279672,2.47825228 7.96788093,2.68670341 C8.53701528,2.82567082 8.67360753,2.91831577 8.67360753,3.10360566 L8.67360753,3.1267669 C8.67360753,3.31205679 8.51424991,3.40470173 8.19553467,3.40470173 C7.71746182,3.40470173 7.26215433,3.21941184 6.8523776,2.89515453 L6.21494713,3.65947533 C6.73855073,4.09953882 7.42151195,4.33115118 8.1727693,4.33115118 L8.1727693,4.33115118 Z" id="path4166"></path>
                            <polygon id="path4168" points="11.2916255 4.26166747 12.4298943 4.26166747 12.4298943 1.0885781 13.6592245 1.0885781 13.6592245 0.0694837088 10.03953 0.0694837088 10.03953 1.0885781 11.2688602 1.0885781 11.2688602 4.26166747"></polygon>
                            <path d="M13.3177438,4.26166747 L14.5243087,4.26166747 L14.8202585,3.49734668 L16.4138347,3.49734668 L16.7097846,4.26166747 L17.9391148,4.26166747 L16.1634156,0.0463224725 L15.0706776,0.0463224725 L13.3177438,4.26166747 Z M15.1389738,2.6172197 L15.5942812,1.43599665 L16.0495887,2.6172197 L15.1389738,2.6172197 Z" id="path4170"></path>
                            <polygon id="path4172" points="18.3261261 4.26166747 19.4643948 4.26166747 19.4643948 1.96870508 21.240094 4.26166747 22.2417705 4.26166747 22.2417705 0.0694837088 21.1035018 0.0694837088 21.1035018 2.29296239 19.3960987 0.0694837088 18.3261261 0.0694837088 18.3261261 4.26166747"></polygon>
                            <polygon id="path4174" points="23.9491735 4.26166747 25.0874422 4.26166747 25.0874422 1.0885781 26.3167724 1.0885781 26.3167724 0.0694837088 22.697078 0.0694837088 22.697078 1.0885781 23.9264082 1.0885781 23.9264082 4.26166747"></polygon>
                        </g>
                        <g id="text4155" transform="translate(0.000000, 5.878594)">
                            <path d="M7.65714286,14.5686901 C10.24,14.5686901 12.2971429,13.6391596 13.7828571,12.3922285 L13.7828571,6.11222977 L7.31428571,6.11222977 L7.31428571,8.9461642 L10.08,8.9461642 L10.08,10.6465249 C9.50857143,11.0319399 8.8,11.2359832 7.81714286,11.2359832 C5.57714286,11.2359832 4,9.62630846 4,7.33648944 L4,7.29114649 C4,5.1600278 5.57714286,3.48233862 7.61142857,3.48233862 C9.02857143,3.48233862 10.0114286,3.95843961 11.0171429,4.7972842 L13.3028571,2.0313642 C11.8171429,0.761761574 10.0571429,0.0136028852 7.58857143,0.0136028852 C3.22285714,0.0136028852 0,3.21028092 0,7.29114649 L0,7.33648944 C0,11.5533839 3.26857143,14.5686901 7.65714286,14.5686901 Z" id="path4149"></path>
                            <path d="M13.8285714,14.2739609 L17.92,14.2739609 L18.9257143,11.7574271 L24.3885714,11.7574271 L25.3942857,14.2739609 L29.5771429,14.2739609 L23.5885714,0.194974688 L19.8171429,0.194974688 L13.8285714,14.2739609 Z M20.0685714,8.74212092 L21.6685714,4.77461272 L23.2457143,8.74212092 L20.0685714,8.74212092 Z" id="path4151"></path>
                            <polygon id="path4153" points="29.92 14.2739609 33.7371429 14.2739609 33.7371429 6.2709301 37.3257143 11.7347557 37.4171429 11.7347557 41.0285714 6.24825862 41.0285714 14.2739609 44.9142857 14.2739609 44.9142857 0.28566059 40.7771429 0.28566059 37.4171429 5.70414321 34.0571429 0.28566059 29.92 0.28566059"></polygon>
                            <polygon id="path4155" points="46.4457143 14.2739609 50.3542857 14.2739609 50.3542857 0.28566059 46.4457143 0.28566059"></polygon>
                            <polygon id="path4157" points="51.8857143 14.2739609 55.7485714 14.2739609 55.7485714 6.61100223 61.7828571 14.2966324 65.1885714 14.2966324 65.1885714 0.28566059 61.3257143 0.28566059 61.3257143 7.67656157 55.5428571 0.28566059 51.8857143 0.28566059"></polygon>
                            <path d="M73.8742857,14.5686901 C76.4571429,14.5686901 78.5142857,13.6391596 80,12.3922285 L80,6.11222977 L73.5314286,6.11222977 L73.5314286,8.9461642 L76.2971429,8.9461642 L76.2971429,10.6465249 C75.7257143,11.0319399 75.0171429,11.2359832 74.0342857,11.2359832 C71.7942857,11.2359832 70.2171429,9.62630846 70.2171429,7.33648944 L70.2171429,7.29114649 C70.2171429,5.1600278 71.7942857,3.48233862 73.8285714,3.48233862 C75.2457143,3.48233862 76.2285714,3.95843961 77.2342857,4.7972842 L79.52,2.0313642 C78.0342857,0.761761574 76.2742857,0.0136028852 73.8057143,0.0136028852 C69.4628571,0.0136028852 66.2398809,3.21028092 66.2398809,7.29114649 L66.2398809,7.33648944 C66.2171429,11.5533839 69.4857143,14.5686901 73.8742857,14.5686901 L73.8742857,14.5686901 Z" id="path4159"></path>
                        </g>
                    </g>
                </g>
            </g>
        </g>
    </g>
</svg>