<?xml version="1.0" encoding="UTF-8"?>
<svg width="80px" height="18px" viewBox="0 0 80 18" version="1.1" xmlns="http://www.w3.org/2000/svg" xmlns:xlink="http://www.w3.org/1999/xlink">
    <!-- Generator: Sketch 57.1 (83088) - https://sketch.com -->
    <title>g-logo</title>
    <desc>Created with Sketch.</desc>
    <g id="New-Game-Header" stroke="none" stroke-width="1" fill="none" fill-rule="evenodd">
        <g id="Desktop-HD" transform="translate(-914.000000, -1565.000000)" fill="#F48938">
            <g id="superhot" transform="translate(572.000000, 1174.000000)">
                <g id="Gamivo" transform="translate(322.000000, 385.000000)">
                    <g id="g-logo" transform="translate(20.000000, 6.000000)">
                        <polygon id="Path" fill-rule="nonzero" points="61.0576 0.662 57.4764 10.1184 57.2132 10.8136 56.9516 10.1176 53.3704 0.6 48.448 0.6 54.4792 16.6768 59.9492 16.6768 65.9804 0.662"></polygon>
                        <polygon id="Path" fill-rule="nonzero" points="61.0576 0.662 57.4764 10.1184 57.2132 10.8136 56.9516 10.1176 53.3704 0.6 48.448 0.6 54.4792 16.6768 59.9492 16.6768 65.9804 0.662"></polygon>
                        <path d="M69.1412,16.7 C69.1412,14.818 70.0556,13.1532 71.4604,12.1124 C70.8332,12.5044 70.1384,12.7004 69.3536,12.7004 C68.2352,12.7004 67.3,12.3212 66.4936,11.5412 C65.7176,10.7396 65.3276,9.7772 65.3276,8.6744 C65.3276,7.562 65.7188,6.6068 66.4904,5.8352 C67.2888,5.0368 68.2256,4.6484 69.3536,4.6484 C70.466,4.6484 71.3948,5.0368 72.1932,5.8352 C72.9944,6.586 73.4036,7.5432 73.4036,8.6744 C73.4036,9.7964 72.9956,10.7608 72.1904,11.5412 C72.058,11.6692 71.9212,11.782 71.7824,11.8884 C72.67,11.3204 73.7224,10.9872 74.8544,10.9872 C75.816,10.9872 76.7204,11.2272 77.5156,11.6468 C77.856,10.7196 78.0284,9.7272 78.0284,8.6744 C78.0284,6.2912 77.168,4.234 75.4712,2.56 C73.748,0.8368 71.7472,0 69.3536,0 C66.96,0 64.9596,0.8368 63.238,2.5588 C61.556,4.2408 60.7032,6.2984 60.7032,8.6744 C60.7032,11.0276 61.5564,13.0856 63.2392,14.7916 C64.9236,16.4532 66.8688,17.2808 69.1764,17.3212 C69.1544,17.1172 69.1412,16.9104 69.1412,16.7 L69.1412,16.7 Z" id="Path" fill-rule="nonzero"></path>
                        <path d="M9.1952,10.4588 L12.3196,10.4588 L12.0292,10.8948 C11.888,11.1068 11.7168,11.3112 11.4896,11.538 C10.7184,12.3092 9.7632,12.7004 8.6504,12.7004 C7.5476,12.7004 6.5856,12.3104 5.7904,11.5412 C5.0148,10.74 4.6244,9.7776 4.6244,8.6744 C4.6244,7.5616 5.0156,6.6064 5.7872,5.8352 C6.5744,5.048 7.538,4.6484 8.6504,4.6484 C9.7348,4.6484 10.4528,4.886 11.1264,5.4828 L14.5556,2.3536 C12.882,0.7704 10.9472,0 8.6504,0 C6.29,0 4.2324,0.8608 2.5348,2.5588 C0.8524,4.2184 0,6.2752 0,8.6744 C0,11.0508 0.8528,13.1084 2.5348,14.7904 C4.2396,16.472 6.298,17.3252 8.6504,17.3252 C11.0364,17.3252 13.0376,16.4956 14.768,14.7888 C16.3748,13.182 17.1568,11.1812 17.1568,8.6744 L17.1568,7.7308 L9.1952,7.7308 L9.1952,10.4588 L9.1952,10.4588 Z" id="Path" fill-rule="nonzero"></path>
                        <path d="M21.6168,10.804 L18.8692,10.804 L18.9988,10.4312 L20.1752,7.046 L20.44,6.2832 L20.7052,7.046 L21.8816,10.4312 L22.0112,10.804 L21.6168,10.804 L21.6168,10.804 Z M28.9292,16.6768 L23.3376,0.576 L17.5428,0.576 L11.9512,16.6788 L16.832,16.7 L17.5344,14.6808 L17.5996,14.492 L23.304,14.492 L23.37,14.6796 L24.072,16.6768 L28.9292,16.6768 L28.9292,16.6768 Z" id="Shape"></path>
                        <path d="M11.996,16.6788 C12.9948,16.258 13.9144,15.6308 14.768,14.7888 C16.3748,13.182 17.1568,11.1812 17.1568,8.6744 L17.1568,7.7308 L15.0584,7.7308 L11.9512,16.6788 L11.996,16.6788 Z" id="Path" fill-rule="nonzero"></path>
                        <polygon id="Path" fill-rule="nonzero" points="35.0692 5.148 34.846 5.4392 34.6236 5.1476 31.1544 0.6 30.9888 0.6 30.9888 0.576 26.3884 0.576 26.3884 16.6768 30.9888 16.6768 30.9888 7.9836 31.4932 8.6492 34.87 13.1068 38.176 8.7216 38.6808 8.052 38.6808 16.6768 43.2812 16.6768 43.2812 0.576 38.5756 0.576"></polygon>
                        <polygon id="Path" fill-rule="nonzero" points="26.3884 16.6768 28.9292 16.6768 26.3884 9.3604"></polygon>
                        <polygon id="Path" fill-rule="nonzero" points="50.0284 0.6 45.4036 0.6 45.4036 4.8208 50.0284 4.8208"></polygon>
                        <polygon id="Path" fill-rule="nonzero" points="45.4036 6.9432 45.4036 16.6768 50.0284 16.6768 50.0284 6.9432"></polygon>
                        <path d="M63.238,2.5588 C61.556,4.2408 60.7032,6.2984 60.7032,8.6744 C60.7032,10.0284 60.9872,11.284 61.5476,12.432 L65.9804,0.662 C64.9908,1.0864 64.0808,1.716 63.238,2.5588 L63.238,2.5588 Z" id="Path" fill-rule="nonzero"></path>
                        <polygon id="Path" fill-rule="nonzero" points="50.0284 4.8124 50.0284 0.6 48.448 0.6"></polygon>
                        <path d="M71.0732,16.5072 C70.8516,16.5072 70.6744,16.3344 70.6744,16.1128 C70.6744,15.8956 70.8516,15.714 71.0732,15.714 C71.29,15.714 71.4716,15.8956 71.4716,16.1128 C71.4716,16.3344 71.29,16.5072 71.0732,16.5072 Z" id="Path" fill-rule="nonzero"></path>
                        <path d="M76.1056,14.4868 C75.968,14.3496 75.8088,14.2832 75.6184,14.2832 C75.4232,14.2832 75.264,14.3496 75.1264,14.4868 C74.9936,14.62 74.9272,14.784 74.9272,14.9744 C74.9272,15.1648 74.9936,15.3288 75.1264,15.466 C75.264,15.5988 75.4232,15.6652 75.6184,15.6652 C75.8088,15.6652 75.968,15.5988 76.1056,15.466 C76.2472,15.3288 76.3136,15.1648 76.3136,14.9744 C76.3136,14.784 76.2472,14.62 76.1056,14.4868 L76.1056,14.4868 Z M76.7832,16.1392 C76.4596,16.4584 76.0744,16.6224 75.6184,16.6224 C75.162,16.6224 74.7768,16.4584 74.4532,16.1392 C74.1344,15.816 73.9704,15.4264 73.9704,14.9744 C73.9704,14.518 74.1344,14.1284 74.4532,13.8092 C74.7768,13.486 75.162,13.322 75.6184,13.322 C76.0744,13.322 76.4596,13.486 76.7832,13.8092 C77.1068,14.1284 77.2704,14.518 77.2704,14.9744 C77.2704,15.4264 77.1068,15.816 76.7832,16.1392 Z" id="Shape"></path>
                        <path d="M73.7192,15.49 C73.5816,15.6136 73.3748,15.6432 73.192,15.6432 C73.0016,15.6432 72.8068,15.59 72.6736,15.4528 C72.5364,15.32 72.4964,15.1648 72.4964,14.9744 C72.4964,14.784 72.5632,14.62 72.7004,14.4868 C72.8332,14.3496 73.0016,14.2832 73.192,14.2832 C73.3828,14.2832 73.5464,14.3496 73.684,14.4868 C73.688,14.4916 73.688,14.4916 73.6928,14.496 L73.7196,14.4556 C73.7988,14.1556 73.95,13.8864 74.1704,13.648 C73.9692,13.5076 73.6144,13.322 73.192,13.322 C72.7404,13.322 72.3504,13.4816 72.0272,13.8048 C71.7036,14.1284 71.544,14.518 71.544,14.9744 C71.544,15.4264 71.7036,15.816 72.0272,16.1392 C72.3504,16.4628 72.7404,16.6224 73.192,16.6224 C73.6256,16.6224 73.8564,16.5764 74.188,16.3204 C73.9576,16.0744 73.8008,15.7972 73.7192,15.49 L73.7192,15.49 Z" id="Path" fill-rule="nonzero"></path>
                        <path d="M79.0476,13.4284 L79.0476,13.4372 L78.392,14.292 L77.7364,13.4328 L77.732,13.4328 L77.732,13.4284 L76.792,13.4284 C76.86,13.4816 76.9268,13.538 76.9904,13.602 C77.3716,13.978 77.5648,14.4372 77.5648,14.9748 C77.5648,15.5072 77.3716,15.9664 76.9904,16.3476 C76.9336,16.404 76.874,16.4544 76.8136,16.5028 L77.732,16.5028 L77.732,15.0012 L78.3964,15.878 L79.0476,15.014 L79.0476,16.5028 L80,16.5028 L80,13.4284 L79.0476,13.4284 L79.0476,13.4284 Z" id="Path" fill-rule="nonzero"></path>
                        <path d="M69.1412,16.7 C69.1412,14.818 70.0556,13.1532 71.4604,12.1124 C70.8332,12.5044 70.1384,12.7004 69.3536,12.7004 C68.2352,12.7004 67.3,12.3212 66.4936,11.5412 C65.7176,10.7396 65.3276,9.7772 65.3276,8.6744 C65.3276,7.562 65.7188,6.6068 66.4904,5.8352 C67.2888,5.0368 68.2256,4.6484 69.3536,4.6484 C70.466,4.6484 71.3948,5.0368 72.1932,5.8352 C72.9944,6.586 73.4036,7.5432 73.4036,8.6744 C73.4036,9.7964 72.9956,10.7608 72.1904,11.5412 C72.058,11.6692 71.9212,11.782 71.7824,11.8884 C72.67,11.3204 73.7224,10.9872 74.8544,10.9872 C75.816,10.9872 76.7204,11.2272 77.5156,11.6468 C77.856,10.7196 78.0284,9.7272 78.0284,8.6744 C78.0284,6.2912 77.168,4.234 75.4712,2.56 C73.748,0.8368 71.7472,0 69.3536,0 C66.96,0 64.9596,0.8368 63.238,2.5588 C61.556,4.2408 60.7032,6.2984 60.7032,8.6744 C60.7032,11.0276 61.5564,13.0856 63.2392,14.7916 C64.9236,16.4532 66.8688,17.2808 69.1764,17.3212 C69.1544,17.1172 69.1412,16.9104 69.1412,16.7 L69.1412,16.7 Z" id="Path" fill-rule="nonzero"></path>
                        <path d="M9.1952,10.4588 L12.3196,10.4588 L12.0292,10.8948 C11.888,11.1068 11.7168,11.3112 11.4896,11.538 C10.7184,12.3092 9.7632,12.7004 8.6504,12.7004 C7.5476,12.7004 6.5856,12.3104 5.7904,11.5412 C5.0148,10.74 4.6244,9.7776 4.6244,8.6744 C4.6244,7.5616 5.0156,6.6064 5.7872,5.8352 C6.5744,5.048 7.538,4.6484 8.6504,4.6484 C9.7348,4.6484 10.4528,4.886 11.1264,5.4828 L14.5556,2.3536 C12.882,0.7704 10.9472,0 8.6504,0 C6.29,0 4.2324,0.8608 2.5348,2.5588 C0.8524,4.2184 0,6.2752 0,8.6744 C0,11.0508 0.8528,13.1084 2.5348,14.7904 C4.2396,16.472 6.298,17.3252 8.6504,17.3252 C11.0364,17.3252 13.0376,16.4956 14.768,14.7888 C16.3748,13.182 17.1568,11.1812 17.1568,8.6744 L17.1568,7.7308 L9.1952,7.7308 L9.1952,10.4588 L9.1952,10.4588 Z" id="Path" fill-rule="nonzero"></path>
                        <path d="M21.6168,10.804 L18.8692,10.804 L18.9988,10.4312 L20.1752,7.046 L20.44,6.2832 L20.7052,7.046 L21.8816,10.4312 L22.0112,10.804 L21.6168,10.804 L21.6168,10.804 Z M28.9292,16.6768 L23.3376,0.576 L17.5428,0.576 L11.9512,16.6788 L16.832,16.7 L17.5344,14.6808 L17.5996,14.492 L23.304,14.492 L23.37,14.6796 L24.072,16.6768 L28.9292,16.6768 L28.9292,16.6768 Z" id="Shape"></path>
                        <path d="M11.996,16.6788 C12.9948,16.258 13.9144,15.6308 14.768,14.7888 C16.3748,13.182 17.1568,11.1812 17.1568,8.6744 L17.1568,7.7308 L15.0584,7.7308 L11.9512,16.6788 L11.996,16.6788 Z" id="Path" fill-rule="nonzero"></path>
                        <polygon id="Path" fill-rule="nonzero" points="35.0692 5.148 34.846 5.4392 34.6236 5.1476 31.1544 0.6 30.9888 0.6 30.9888 0.576 26.3884 0.576 26.3884 16.6768 30.9888 16.6768 30.9888 7.9836 31.4932 8.6492 34.87 13.1068 38.176 8.7216 38.6808 8.052 38.6808 16.6768 43.2812 16.6768 43.2812 0.576 38.5756 0.576"></polygon>
                        <polygon id="Path" fill-rule="nonzero" points="26.3884 16.6768 28.9292 16.6768 26.3884 9.3604"></polygon>
                        <polygon id="Path" fill-rule="nonzero" points="50.0284 0.6 45.4036 0.6 45.4036 4.8208 50.0284 4.8208"></polygon>
                        <polygon id="Path" fill-rule="nonzero" points="45.4036 6.9432 45.4036 16.6768 50.0284 16.6768 50.0284 6.9432"></polygon>
                        <path d="M63.238,2.5588 C61.556,4.2408 60.7032,6.2984 60.7032,8.6744 C60.7032,10.0284 60.9872,11.284 61.5476,12.432 L65.9804,0.662 C64.9908,1.0864 64.0808,1.716 63.238,2.5588 L63.238,2.5588 Z" id="Path" fill-rule="nonzero"></path>
                        <polygon id="Path" fill-rule="nonzero" points="50.0284 4.8124 50.0284 0.6 48.448 0.6"></polygon>
                        <path d="M71.0732,16.5072 C70.8516,16.5072 70.6744,16.3344 70.6744,16.1128 C70.6744,15.8956 70.8516,15.714 71.0732,15.714 C71.29,15.714 71.4716,15.8956 71.4716,16.1128 C71.4716,16.3344 71.29,16.5072 71.0732,16.5072 Z" id="Path" fill-rule="nonzero"></path>
                        <path d="M76.1056,14.4868 C75.968,14.3496 75.8088,14.2832 75.6184,14.2832 C75.4232,14.2832 75.264,14.3496 75.1264,14.4868 C74.9936,14.62 74.9272,14.784 74.9272,14.9744 C74.9272,15.1648 74.9936,15.3288 75.1264,15.466 C75.264,15.5988 75.4232,15.6652 75.6184,15.6652 C75.8088,15.6652 75.968,15.5988 76.1056,15.466 C76.2472,15.3288 76.3136,15.1648 76.3136,14.9744 C76.3136,14.784 76.2472,14.62 76.1056,14.4868 L76.1056,14.4868 Z M76.7832,16.1392 C76.4596,16.4584 76.0744,16.6224 75.6184,16.6224 C75.162,16.6224 74.7768,16.4584 74.4532,16.1392 C74.1344,15.816 73.9704,15.4264 73.9704,14.9744 C73.9704,14.518 74.1344,14.1284 74.4532,13.8092 C74.7768,13.486 75.162,13.322 75.6184,13.322 C76.0744,13.322 76.4596,13.486 76.7832,13.8092 C77.1068,14.1284 77.2704,14.518 77.2704,14.9744 C77.2704,15.4264 77.1068,15.816 76.7832,16.1392 Z" id="Shape"></path>
                        <path d="M73.7192,15.49 C73.5816,15.6136 73.3748,15.6432 73.192,15.6432 C73.0016,15.6432 72.8068,15.59 72.6736,15.4528 C72.5364,15.32 72.4964,15.1648 72.4964,14.9744 C72.4964,14.784 72.5632,14.62 72.7004,14.4868 C72.8332,14.3496 73.0016,14.2832 73.192,14.2832 C73.3828,14.2832 73.5464,14.3496 73.684,14.4868 C73.688,14.4916 73.688,14.4916 73.6928,14.496 L73.7196,14.4556 C73.7988,14.1556 73.95,13.8864 74.1704,13.648 C73.9692,13.5076 73.6144,13.322 73.192,13.322 C72.7404,13.322 72.3504,13.4816 72.0272,13.8048 C71.7036,14.1284 71.544,14.518 71.544,14.9744 C71.544,15.4264 71.7036,15.816 72.0272,16.1392 C72.3504,16.4628 72.7404,16.6224 73.192,16.6224 C73.6256,16.6224 73.8564,16.5764 74.188,16.3204 C73.9576,16.0744 73.8008,15.7972 73.7192,15.49 L73.7192,15.49 Z" id="Path" fill-rule="nonzero"></path>
                        <path d="M79.0476,13.4284 L79.0476,13.4372 L78.392,14.292 L77.7364,13.4328 L77.732,13.4328 L77.732,13.4284 L76.792,13.4284 C76.86,13.4816 76.9268,13.538 76.9904,13.602 C77.3716,13.978 77.5648,14.4372 77.5648,14.9748 C77.5648,15.5072 77.3716,15.9664 76.9904,16.3476 C76.9336,16.404 76.874,16.4544 76.8136,16.5028 L77.732,16.5028 L77.732,15.0012 L78.3964,15.878 L79.0476,15.014 L79.0476,16.5028 L80,16.5028 L80,13.4284 L79.0476,13.4284 L79.0476,13.4284 Z" id="Path" fill-rule="nonzero"></path>
                    </g>
                </g>
            </g>
        </g>
    </g>
</svg>