<?xml version="1.0" encoding="UTF-8"?>
<svg width="80px" height="20px" viewBox="0 0 80 20" version="1.1" xmlns="http://www.w3.org/2000/svg" xmlns:xlink="http://www.w3.org/1999/xlink">
    <!-- Generator: Sketch 57.1 (83088) - https://sketch.com -->
    <title>Steam_logo</title>
    <desc>Created with Sketch.</desc>
    <g id="New-Game-Header" stroke="none" stroke-width="1" fill="none" fill-rule="evenodd">
        <g id="Desktop-HD" transform="translate(-636.000000, -1566.000000)" fill="#CAC9C7" fill-rule="nonzero">
            <g id="superhot" transform="translate(572.000000, 1174.000000)">
                <g id="Steam" transform="translate(42.000000, 385.000000)">
                    <g id="Steam_logo" transform="translate(22.000000, 7.000000)">
                        <path d="M48.9992593,8.85555556 C48.5148148,8.85555556 48.0911111,8.79407407 47.7288889,8.66888889 C47.3688889,8.54518519 47.04,8.33703704 46.7451852,8.04222222 L47.5266667,7.26296296 C47.7103704,7.44740741 47.9281481,7.58074074 48.1807407,7.66148148 C48.4325926,7.7437037 48.7111111,7.78444444 49.0177778,7.78444444 C49.7451852,7.78444444 50.1103704,7.52740741 50.1103704,7.01777778 C50.1103704,6.80222222 50.0548148,6.63481481 49.9451852,6.51555556 C49.8355556,6.39703704 49.6444444,6.31851852 49.3718519,6.27703704 L49.0244444,6.2237037 L48.6251852,6.17333333 C48.0977778,6.09703704 47.697037,5.92740741 47.4251852,5.66148148 C47.1296296,5.36740741 46.9822222,4.96222222 46.9822222,4.44888889 C46.9822222,3.88888889 47.1762963,3.43585185 47.562963,3.09362963 C47.9511111,2.74918519 48.4740741,2.57807407 49.1355556,2.57807407 C49.5666667,2.57807407 49.942963,2.63288889 50.2607407,2.74696296 C50.58,2.8602963 50.8688889,3.044 51.1274074,3.29807407 L50.3651852,4.05185185 C50.1903704,3.88518519 49.9992593,3.77259259 49.7888889,3.71481481 C49.5777778,3.65733333 49.3496296,3.6277037 49.0992593,3.6277037 C48.7925926,3.6277037 48.557037,3.7002963 48.3925926,3.84814815 C48.2274074,3.99555556 48.1451852,4.18074074 48.1451852,4.40592593 C48.1451852,4.56740741 48.2088889,4.71407407 48.3355556,4.84148148 C48.4637037,4.97111111 48.6511111,5.05407407 48.9,5.08888889 L49.2718519,5.14 L49.6288889,5.19259259 C49.9059259,5.23333333 50.1377778,5.29185185 50.3259259,5.36666667 C50.5140741,5.44 50.6748148,5.54296296 50.8074074,5.67037037 C51.1259259,5.97037037 51.2844444,6.40740741 51.2844444,6.98148148 C51.2844444,7.56592593 51.0703704,8.02296296 50.6459259,8.3562963 C50.2177778,8.68962963 49.6711111,8.85555556 48.9992593,8.85555556 Z M55.8222222,3.69525926 L55.8222222,8.79925926 L54.6148148,8.79925926 L54.6148148,3.69525926 L53.0014815,3.69525926 L53.0014815,2.62340741 L57.4355556,2.62340741 L57.4355556,3.69525926 L55.8222222,3.69525926 L55.8222222,3.69525926 Z M59.9755556,8.79851852 L59.9755556,2.62303704 L64.0466667,2.62303704 L64.0466667,3.69488889 L61.1859259,3.69488889 L61.1859259,5.15185185 L63.6222222,5.15185185 L63.6222222,6.2237037 L61.1859259,6.2237037 L61.1859259,7.72666667 L64.0466667,7.72666667 L64.0466667,8.79851852 L59.9755556,8.79851852 Z M70.2948148,8.79851852 L69.9318519,7.70444444 L67.737037,7.70444444 L67.3637037,8.79851852 L66.1066667,8.79851852 L68.3533333,2.62303704 L69.2977778,2.62303704 L71.5555556,8.79851852 L70.2948148,8.79851852 L70.2948148,8.79851852 Z M68.8562963,4.44444444 L68.0755556,6.68740741 L69.6103704,6.68740741 L68.8562963,4.44444444 Z M78.0814815,8.79851852 L78.0814815,5.20074074 L76.9111111,7.54296296 L76.0962963,7.54296296 L74.9111111,5.20074074 L74.9111111,8.79851852 L73.7037037,8.79851852 L73.7037037,2.62303704 L74.8962963,2.62303704 L76.5037037,5.96148148 L78.1037037,2.62303704 L79.2962963,2.62303704 L79.2962963,8.79851852 L78.0814815,8.79851852 L78.0814815,8.79851852 Z" id="Shape"></path>
                        <path d="M38.1792593,0 C34.9414815,0 32.3081481,2.63333333 32.3081481,5.87037037 C32.3081481,5.8962963 32.3081481,5.92222222 32.3096296,5.94666667 L28.5274074,11.4311111 C27.9148148,11.4044444 27.3,11.5111111 26.717037,11.7511111 C26.46,11.8555556 26.2192593,11.9844444 25.9933333,12.1325926 L8.94814815,5.08666667 C8.66148148,3.76 7.75407407,2.58888889 6.40888889,2.02740741 C4.22740741,1.11925926 1.71333333,2.15481481 0.803703704,4.33703704 C-0.105185185,6.51777778 0.931111111,9.03185185 3.11259259,9.94074074 C4.16888889,10.3807407 5.33333333,10.382963 6.39259259,9.94814815 C6.6362963,9.84740741 6.86592593,9.72296296 7.08518519,9.58444444 L24.1681481,16.6466667 C24.462963,17.9607407 25.3666667,19.1148148 26.7,19.6696296 C28.8814815,20.58 31.3962963,19.542963 32.3044444,17.3637037 C32.54,16.7948148 32.6503704,16.197037 32.6340741,15.6007407 L38.0459259,11.74 C38.0903704,11.7414815 38.1348148,11.7422222 38.1792593,11.7422222 C41.417037,11.7422222 44.0496296,9.10740741 44.0496296,5.87037037 C44.0496296,2.63333333 41.417037,0 38.1792593,0 M3.48962963,9.0362963 C2.22148148,8.50814815 1.45481481,7.2762963 1.45481481,5.98 C1.45481481,5.5562963 1.5362963,5.12740741 1.70962963,4.71407407 C2.40962963,3.03037037 4.34962963,2.23111111 6.03185185,2.93185185 C6.82592593,3.26222222 7.41777778,3.86814815 7.75407407,4.59185185 L5.79777778,3.78296296 C4.55777778,3.26666667 3.13259259,3.85333333 2.61481481,5.09407407 C2.09851852,6.33555556 2.68592593,7.76222222 3.92592593,8.27851852 L5.88814815,9.08888889 C5.10666667,9.37407407 4.26074074,9.35925926 3.48962963,9.0362963 M31.4014815,16.9851852 C30.6985185,18.6681481 28.7607407,19.4674074 27.0762963,18.7666667 C26.2992593,18.442963 25.7125926,17.8511111 25.3740741,17.1451852 L27.2851852,17.9362963 C28.5274074,18.4533333 29.9525926,17.8651852 30.4688889,16.6251852 C30.9866667,15.3844444 30.3992593,13.9592593 29.1577778,13.4422222 L27.1822222,12.6251852 C27.9444444,12.3362963 28.8111111,12.3259259 29.6207407,12.6622222 C30.437037,13.0014815 31.0703704,13.6392593 31.4059259,14.4555556 C31.7422222,15.2718519 31.7407407,16.1718519 31.4014815,16.9851852 M38.1792593,9.78296296 C36.022963,9.78296296 34.2681481,8.02740741 34.2681481,5.87037037 C34.2681481,3.71481481 36.022963,1.95925926 38.1792593,1.95925926 C40.3355556,1.95925926 42.0911111,3.71481481 42.0911111,5.87037037 C42.0911111,8.02740741 40.3355556,9.78296296 38.1792593,9.78296296 M38.1851852,8.80222222 C36.5637037,8.80222222 35.2481481,7.48740741 35.2481481,5.86444444 C35.2481481,4.24148148 36.5637037,2.92518519 38.1851852,2.92518519 C39.8081481,2.92518519 41.1244444,4.24148148 41.1244444,5.86444444 C41.1244444,7.48740741 39.8081481,8.80222222 38.1851852,8.80222222" id="Shape"></path>
                    </g>
                </g>
            </g>
        </g>
    </g>
</svg>