<svg width="80" height="17" viewBox="0 0 80 17" fill="none" xmlns="http://www.w3.org/2000/svg">
<path d="M0.00587971 8.42492C0.00101944 9.39454 0.868578 9.65943 1.29628 8.80888C2.01074 7.38239 3.79203 6.80645 5.83821 7.13694C7.62193 7.42613 0.759222 3.2147 0.00587971 8.42492V8.42492Z" fill="#642BE9"/>
<path d="M10.4069 3.42128C10.1229 2.84498 9.67918 2.36248 9.12865 2.03125C9.14555 1.98892 9.17029 1.95017 9.20156 1.91703C9.25782 1.85995 9.29732 1.78852 9.31575 1.71052C9.33418 1.63252 9.33082 1.55096 9.30605 1.47474C9.29047 1.4193 9.28806 1.36097 9.29904 1.30443C9.31001 1.24789 9.33405 1.1947 9.36924 1.14911C9.40741 1.10068 9.43439 1.04441 9.44826 0.984333C9.46212 0.924253 9.46252 0.861849 9.44943 0.801596C9.43511 0.725867 9.44533 0.647545 9.47859 0.578023C9.5515 0.415204 9.64627 0.133308 9.45429 0.0288121C9.22586 -0.0926948 8.92695 0.194061 8.8103 0.441935C8.77367 0.522207 8.7088 0.586209 8.62804 0.621766C8.54894 0.656564 8.47788 0.70734 8.41934 0.770905C8.36079 0.834471 8.31601 0.909454 8.28782 0.991147C8.273 1.04364 8.2465 1.09211 8.21031 1.13293C8.17412 1.17375 8.12918 1.20586 8.07883 1.22687C7.93863 1.28435 7.82387 1.39048 7.75562 1.52578C6.60104 1.34827 5.41982 1.49814 4.34614 1.95834C3.114 2.45692 2.04228 3.28403 1.24772 4.3496C0.381298 5.52676 -0.0568431 6.96465 0.00591529 8.42494C0.0443576 8.2174 0.13013 8.02151 0.25657 7.85251C0.383009 7.6835 0.546711 7.54592 0.734957 7.45045C1.20845 7.20128 1.72602 7.04691 2.25865 6.99602C2.9015 6.92164 3.54981 6.90619 4.19547 6.94984C4.85527 6.98924 5.51192 7.07041 6.16145 7.19286C6.90127 7.34951 7.66782 7.32701 8.39718 7.12724C8.97299 6.96497 9.49382 6.64912 9.90387 6.21351C10.2605 5.83254 10.5016 5.35805 10.5989 4.84534C10.691 4.3624 10.6236 3.8626 10.4069 3.42128V3.42128Z" fill="#642BE9"/>
<path d="M6.16149 7.19525C8.61592 7.66184 10.1809 6.43462 10.5527 5.05187C8.82006 8.66549 5.73135 6.09683 2.10073 6.26694C0.873506 6.32526 0.159045 5.87812 1.43244 4.10898C0.445942 5.3252 -0.0614517 6.86035 0.00594661 8.4249C0.273262 6.72381 3.69004 6.72624 6.16149 7.19525V7.19525Z" fill="#642BE9"/>
<path d="M12.4726 1.50875C11.6366 1.02272 10.9708 1.63998 11.4957 2.43463C12.3705 3.76878 11.9769 5.59624 10.667 7.20256C9.52485 8.60232 16.6038 4.77243 12.4726 1.50875V1.50875Z" fill="#642BE9"/>
<path d="M16.0596 8.05069C16.9441 7.36053 16.8299 6.96685 15.9381 6.8745C15.8773 6.09869 15.6884 5.33829 15.3791 4.62419C14.7932 3.28434 13.7668 2.18507 12.4702 1.50876C12.6307 1.64569 12.7573 1.8178 12.8404 2.01169C12.9234 2.20558 12.9606 2.41602 12.949 2.62662C12.9278 3.16175 12.8024 3.6876 12.5796 4.17462C12.3219 4.76885 12.0103 5.33825 11.6489 5.87572C11.2833 6.42704 10.8831 6.95463 10.4508 7.45531C9.94497 8.01742 9.58086 8.69231 9.38883 9.42372C9.24172 10.0037 9.25516 10.6127 9.42771 11.1856C9.57792 11.6852 9.86699 12.1319 10.2612 12.4735C10.634 12.7956 11.1014 12.9876 11.593 13.0203C12.1381 13.0494 12.6825 12.9512 13.1832 12.7336C13.6838 12.5159 14.1269 12.1848 14.4775 11.7664C14.6659 11.5545 14.8358 11.3268 14.9854 11.0859C15.027 11.0201 15.0837 10.9651 15.1507 10.9255C16.6987 10.0021 16.8858 9.49176 15.8992 9.39942C17.2746 8.51971 17.26 8.07013 16.0571 8.05069H16.0596Z" fill="#642BE9"/>
<path d="M10.4531 7.45287C8.82002 9.34595 9.09949 11.3144 10.108 12.3277C7.8504 9.01788 11.622 7.63271 13.2915 4.40548C13.8553 3.31192 14.5989 2.91824 15.4932 4.90852C14.9354 3.44432 13.8609 2.23496 12.4725 1.50876C13.8091 2.59503 12.0983 5.55008 10.4555 7.45287H10.4531Z" fill="#642BE9"/>
<path d="M12.2175 15.7469C13.0583 15.2609 12.8517 14.3788 11.9016 14.4371C10.3098 14.5343 8.91734 13.2852 8.17615 11.3508C7.53459 9.65943 7.33289 17.7056 12.2175 15.7445V15.7469Z" fill="#642BE9"/>
<path d="M11.0095 15.606C10.5566 15.321 10.1636 14.9504 9.85272 14.5148C9.46526 13.9961 9.12605 13.4429 8.83935 12.8623C8.54271 12.2718 8.28379 11.663 8.06414 11.0397L8.01796 10.9134C8.5453 10.5221 8.73242 10.2111 8.56474 9.99478C8.42137 9.81252 8.02039 9.69831 7.34724 9.66185C7.20877 9.47389 7.05428 9.29827 6.88552 9.13694C6.45531 8.72148 5.92022 8.43083 5.33752 8.29612C4.82943 8.17893 4.29851 8.20842 3.80653 8.38117C3.34203 8.54325 2.94285 8.85202 2.66923 9.26088C2.39842 9.67419 2.21926 10.1407 2.14381 10.629C2.06835 11.1174 2.09836 11.6162 2.23181 12.092C1.83812 12.6339 1.67287 13.0179 1.72634 13.2439C1.78709 13.5112 2.14918 13.5598 2.78831 13.397C3.22157 14.1079 3.78364 14.7318 4.44566 15.2366C5.4957 16.0534 6.74989 16.5662 8.07143 16.719C9.52375 16.8768 10.9864 16.5338 12.2172 15.7469C12.0187 15.8179 11.8064 15.8422 11.5969 15.8177C11.3874 15.7933 11.1864 15.7208 11.0095 15.606V15.606Z" fill="#642BE9"/>
<path d="M8.06419 11.0397C7.23551 8.68252 5.38861 7.94375 4.00586 8.31799C8.00101 8.00208 7.32786 11.9632 9.2987 15.0179C9.96456 16.0507 9.93783 16.8891 7.76771 16.6777C9.3148 16.9211 10.8975 16.5901 12.2173 15.7469C10.6134 16.3666 8.90016 13.414 8.06419 11.0397V11.0397Z" fill="#642BE9"/>
<path d="M36.299 6.9414C36.4638 6.73624 36.6415 6.54176 36.831 6.35911C37.0454 6.15532 37.2847 5.97939 37.5431 5.83547C37.8388 5.67073 38.1541 5.54405 38.4815 5.45845C38.8824 5.3557 39.2951 5.3064 39.7089 5.31183C40.167 5.31137 40.6233 5.37051 41.0662 5.48777C41.4914 5.59675 41.8884 5.79527 42.2308 6.07006C42.5771 6.3548 42.8525 6.71621 43.0351 7.12572C43.2501 7.63107 43.353 8.17702 43.3367 8.72597V15.8768H39.3026V9.94501C39.3124 9.57053 39.2258 9.19982 39.0512 8.8684C38.9453 8.70797 38.7965 8.58051 38.6217 8.50052C38.4469 8.42053 38.2532 8.39124 38.0626 8.41597C37.8229 8.40887 37.5848 8.45763 37.3672 8.5584C37.1827 8.64886 37.0154 8.77077 36.8729 8.91867C36.7409 9.0541 36.6383 9.21523 36.5712 9.39204C36.5083 9.55748 36.4688 9.73092 36.4539 9.90731V15.8768H32.424V5.50872H32.5664C33.945 5.50806 35.2749 6.01851 36.299 6.9414V6.9414ZM67.4703 7.24302C67.2611 6.83485 66.9702 6.47409 66.6157 6.18317C66.2664 5.89876 65.8692 5.67889 65.4427 5.53385C65.0293 5.38905 64.5947 5.31402 64.1567 5.31183C63.5435 5.31301 62.9378 5.44587 62.3805 5.70142C61.8518 5.92908 61.3691 6.25134 60.9562 6.65235V2.29565C60.978 2.15876 60.9678 2.01866 60.9264 1.88637C60.885 1.75408 60.8134 1.6332 60.7174 1.53323C59.7411 0.778049 58.5417 0.368424 57.3074 0.368652H56.9262V15.8768H57.3074C58.5417 15.877 59.7411 15.4674 60.7174 14.7122L60.8431 14.6159C61.0012 14.8138 61.1719 15.0013 61.3542 15.1772C61.5456 15.3608 61.7612 15.5172 61.9951 15.6422C62.2521 15.7799 62.525 15.8854 62.8078 15.9564C63.1536 16.0376 63.5082 16.0756 63.8634 16.0695C64.3835 16.074 64.9009 15.9962 65.3967 15.8391C65.8526 15.6955 66.2765 15.4651 66.645 15.1605C67.0021 14.8602 67.2895 14.4856 67.487 14.0629C67.7005 13.5982 67.8065 13.0913 67.797 12.58V8.70502C67.8095 8.19694 67.6973 7.69355 67.4703 7.23883V7.24302ZM63.7671 11.6709C63.7671 12.6651 63.3538 13.1623 62.5271 13.1623C62.316 13.1741 62.1048 13.1422 61.9066 13.0687C61.7083 12.9952 61.5274 12.8816 61.3751 12.735C61.2482 12.619 61.1458 12.4788 61.0739 12.3227C61.002 12.1666 60.9619 11.9977 60.9562 11.8259V9.73136C60.959 9.55556 60.996 9.38198 61.0651 9.22029C61.1396 9.03964 61.2476 8.87475 61.3835 8.73435C61.5336 8.57995 61.7111 8.45493 61.9071 8.3657C62.1253 8.26613 62.3627 8.21606 62.6025 8.21909C62.7728 8.20368 62.9443 8.23217 63.1005 8.30184C63.2567 8.37151 63.3924 8.48003 63.4948 8.61705C63.6974 8.9657 63.7922 9.36659 63.7671 9.76906V11.6709ZM69.4392 7.41477C69.6366 6.98237 69.9236 6.59683 70.2812 6.28371C70.6473 5.96574 71.0711 5.72112 71.5295 5.56318C72.0226 5.39274 72.5411 5.30774 73.0628 5.31183C73.401 5.30883 73.7384 5.34538 74.0682 5.42074C74.3458 5.48314 74.6136 5.58321 74.8641 5.71817C75.0878 5.84165 75.2984 5.98763 75.4925 6.15384C75.6804 6.31628 75.8529 6.49578 76.0077 6.69005L76.368 6.45127C77.2851 5.83693 78.3641 5.50887 79.4679 5.50872H80V15.8768H79.4679C78.3641 15.8767 77.2851 15.5486 76.368 14.9343L76.0077 14.6955C75.6065 15.1238 75.1179 15.461 74.575 15.6841C74.0078 15.9359 73.3944 16.0671 72.7737 16.0695C72.3359 16.0687 71.9008 16.0009 71.4835 15.8684C71.0588 15.7369 70.6615 15.5297 70.3105 15.2568C69.9574 14.9812 69.6662 14.6344 69.4559 14.2389C69.2279 13.792 69.1155 13.2951 69.1292 12.7936V8.92286C69.121 8.40489 69.2268 7.89145 69.4392 7.41896V7.41477ZM75.0191 13.0198C75.215 12.9305 75.3926 12.8055 75.5427 12.6512C75.6802 12.5112 75.7897 12.3463 75.8653 12.1652C75.9335 12.002 75.969 11.8269 75.97 11.65V9.45907C75.9269 9.13287 75.7642 8.8343 75.5134 8.62124C75.2099 8.34493 74.8091 8.2003 74.3991 8.21909C73.5724 8.21909 73.1591 8.71759 73.1591 9.7146V11.6123C73.134 12.0148 73.2288 12.4156 73.4314 12.7643C73.5338 12.9013 73.6695 13.0098 73.8257 13.0795C73.9819 13.1492 74.1534 13.1777 74.3237 13.1623C74.5632 13.1666 74.8006 13.118 75.0191 13.0198V13.0198ZM55.5983 11.3819V9.28731C55.601 8.73415 55.4595 8.18984 55.1877 7.70801C54.9061 7.21102 54.5203 6.78086 54.0567 6.44708C53.5355 6.07388 52.9548 5.79198 52.3391 5.61344C51.6472 5.40807 50.9286 5.30643 50.2069 5.31183C49.4533 5.30425 48.7035 5.41884 47.9866 5.65115C47.3522 5.85446 46.7593 6.1694 46.2356 6.58113C45.7578 6.9578 45.364 7.43008 45.0794 7.96774C44.8 8.49988 44.6562 9.09267 44.6605 9.69366V12.115C44.6441 12.7478 44.8146 13.3714 45.1506 13.9079C45.4746 14.4074 45.9088 14.8259 46.4199 15.1312C46.9786 15.462 47.5868 15.7011 48.2212 15.8391C48.9113 15.9947 49.6168 16.072 50.3242 16.0695C51.0502 16.078 51.7742 15.9907 52.4774 15.8098C53.0719 15.6589 53.6359 15.4066 54.1447 15.0641C54.5831 14.7679 54.9496 14.3771 55.2171 13.9205C55.2899 13.7943 55.353 13.6626 55.4056 13.5267C54.4714 12.7074 53.2717 12.2549 52.0291 12.2532V12.3873C52.0291 12.9682 51.4985 13.2586 50.4373 13.2586C49.979 13.2924 49.5211 13.1888 49.1219 12.9612C48.97 12.8371 48.8514 12.6771 48.7768 12.4958C48.7023 12.3144 48.674 12.1173 48.6946 11.9223V11.3777L55.5983 11.3819ZM49.0213 8.43273C49.1824 8.27138 49.3783 8.149 49.5939 8.07494C49.8096 8.00088 50.0393 7.97711 50.2655 8.00544C50.4772 7.98194 50.6915 8.00257 50.8948 8.06602C51.0981 8.12947 51.2861 8.23436 51.4469 8.37408C51.6781 8.64996 51.7964 9.00319 51.7778 9.36272V9.45907H48.6946C48.6856 9.08936 48.8022 8.72753 49.0255 8.43273H49.0213ZM31.0919 11.3819V9.28731C31.0958 8.73453 30.9558 8.19024 30.6855 7.70801C30.4039 7.21102 30.018 6.78086 29.5545 6.44708C29.0333 6.07388 28.4525 5.79198 27.8369 5.61344C27.145 5.40807 26.4264 5.30643 25.7046 5.31183C24.9511 5.30425 24.2013 5.41884 23.4844 5.65115C22.85 5.85446 22.257 6.1694 21.7333 6.58113C21.2556 6.9578 20.8618 7.43008 20.5771 7.96774C20.2978 8.49988 20.1539 9.09267 20.1582 9.69366V12.115C20.1406 12.7474 20.3096 13.371 20.6442 13.9079C20.9693 14.4079 21.405 14.8264 21.9177 15.1312C22.4763 15.462 23.0845 15.7011 23.719 15.8391C24.4091 15.9947 25.1145 16.072 25.8219 16.0695C26.548 16.078 27.272 15.9907 27.9751 15.8098C28.5682 15.6584 29.1307 15.4062 29.6382 15.0641C30.0782 14.7683 30.4461 14.3775 30.7148 13.9205C30.7877 13.7943 30.8507 13.6626 30.9033 13.5267C29.9692 12.7074 28.7694 12.2549 27.5269 12.2532V12.3873C27.5269 12.9682 26.9963 13.2586 25.935 13.2586C25.4768 13.2924 25.0188 13.1888 24.6197 12.9612C24.4678 12.8371 24.3492 12.6771 24.2746 12.4958C24.2 12.3144 24.1718 12.1173 24.1924 11.9223V11.3777L31.0919 11.3819ZM24.5233 8.43273C24.6839 8.27198 24.8791 8.14994 25.094 8.07591C25.3088 8.00187 25.5377 7.97777 25.7633 8.00544C25.975 7.98194 26.1892 8.00257 26.3926 8.06602C26.5959 8.12947 26.7839 8.23436 26.9446 8.37408C27.1759 8.64996 27.2942 9.00319 27.2756 9.36272V9.45907H24.1924C24.1833 9.08936 24.3 8.72753 24.5233 8.43273V8.43273Z" fill="#642BE9"/>
</svg>
