
<svg width="26px" height="20px" viewBox="0 0 26 20" version="1.1" xmlns="http://www.w3.org/2000/svg" xmlns:xlink="http://www.w3.org/1999/xlink">
    <!-- Generator: Sketch 46.2 (44496) - http://www.bohemiancoding.com/sketch -->
    <desc>Created with Sketch.</desc>
    <defs></defs>
    <g id="logos" stroke="none" stroke-width="1" fill="none" fill-rule="evenodd">
        <g id="Desktop-HD" transform="translate(-197.000000, -435.000000)" stroke="#a2a2a2" stroke-width="1.05263158">
            <g id="nfo" transform="translate(197.000000, 435.000000)">
                <rect id="Rectangle-12" x="1.04631579" y="0.526315789" width="23.9073684" height="18.5964912" rx="4.21052632"></rect>
                <polyline id="Path-2" stroke-linecap="round" stroke-linejoin="round" points="4.16 13.3448696 4.16 5.85279133 8.92167496 13.3448696 8.92167496 5.85279133"></polyline>
                <polyline id="Path-3" stroke-linecap="round" stroke-linejoin="round" points="11.2318233 13.3529242 11.2318233 5.85913745 15.2616007 5.85913745"></polyline>
                <path d="M14.782672,9.55477375 L11.3351571,9.55477375" id="Path-4" stroke-linecap="round" stroke-linejoin="round"></path>
                <path d="M22.5864844,9.83312774 C22.5864844,10.5664099 22.4646106,11.2063089 22.2208594,11.752844 C21.9771082,12.2993791 21.6317991,12.7165556 21.1849219,13.004386 C20.7380446,13.2922164 20.2166957,13.4361294 19.6208594,13.4361294 C19.0385648,13.4361294 18.5222939,13.2913597 18.0720313,13.0018161 C17.6217686,12.7122724 17.2722278,12.2993791 17.0233984,11.7631236 C16.7745691,11.2268682 16.6467709,10.6058149 16.64,9.89994518 L16.64,9.3602659 C16.64,8.64068993 16.7635665,8.00507403 17.0107031,7.45339912 C17.2578398,6.90172422 17.6073806,6.47940799 18.0593359,6.18643777 C18.5112913,5.89346756 19.0284085,5.74698465 19.6107031,5.74698465 C20.203154,5.74698465 20.7253493,5.89175431 21.1773047,6.18129797 C21.6292601,6.47084163 21.9771082,6.89058798 22.2208594,7.44054962 C22.4646106,7.99051125 22.5864844,8.63041028 22.5864844,9.3602659 L22.5864844,9.83312774 Z" id="Path" stroke-linecap="round" stroke-linejoin="round"></path>
            </g>
        </g>
    </g>
</svg>
